<?xml version="1.0" encoding="utf-8"?>
<!-- Generator: Adobe Illustrator 25.1.0, SVG Export Plug-In . SVG Version: 6.00 Build 0)  -->
<svg version="1.1" xmlns="http://www.w3.org/2000/svg" xmlns:xlink="http://www.w3.org/1999/xlink" x="0px" y="0px"
	 viewBox="0 0 320 320" style="enable-background:new 0 0 320 320;" xml:space="preserve">
<style type="text/css">
	.st0{enable-background:new    ;}
	.st1{clip-path:url(#SVGID_2_);}
	.st2{fill:#FFFFFF;}
	.st3{fill:none;stroke:#FFFFFF;stroke-width:15.9119;stroke-miterlimit:10;}
	.st4{fill:none;stroke:#000000;stroke-width:6.3622;stroke-miterlimit:10;}
	.st5{clip-path:url(#SVGID_4_);}
	.st6{clip-path:url(#SVGID_6_);}
	.st7{fill:#FFFFFF;stroke:#000000;stroke-width:4.641;stroke-linecap:round;stroke-miterlimit:10;}
	.st8{fill:#FFFFFF;stroke:#000000;stroke-width:5.304;stroke-linecap:round;stroke-miterlimit:10;}
	.st9{clip-path:url(#SVGID_8_);}
	.st10{display:none;}
	.st11{display:inline;}
	.st12{clip-path:url(#SVGID_10_);}
	.st13{fill:#FF0000;}
</style>
<g id="レイヤー_8">
</g>
<g id="かお">
</g>
<g id="後ろのおんぷ">
	<g>
		<g>
			<g class="st0">
				<defs>
					<polygon id="SVGID_1_" class="st0" points="3.6,198.4 3.4,76.3 90.3,83.9 90.6,206 					"/>
				</defs>
				<clipPath id="SVGID_2_">
					<use xlink:href="#SVGID_1_"  style="overflow:visible;"/>
				</clipPath>
				<g class="st1">
					<g>
						<g>
							<g>
								<path class="st2" d="M47.1,177.5c0,0-0.7-89.8,0.9-91.3c0.6-0.6,1.3-0.7,2.1-0.7c1.3,0.1,2.6,0.9,2.7,1.6
									c0.5,4.2,2.6,5.1,4,6.6c1.4,1.4,4.1,3,8.2,4.6c13.7,5.5,20.5,12,20.5,19.5c0,4.9-1.2,12.6-9.6,16.4c-0.4,0.2-0.7,0.2-1,0.2
									c-1.6-0.1-2.5-2.4-0.9-3.7c2.9-2.5,3.7-5.6,3.7-7.9c0-3.5-3.1-6.7-9.4-9.5c-6.3-2.7-11.4-5.6-15.1-8.5l0.2,72.3l0,4.2
									c0,2.3-0.1,3.9-0.3,4.8c-0.8,3.2-3.2,5.7-7.1,7.6c-4,1.9-9.2,2.5-15.5,1.9c-6.7-0.6-12.5-1.5-16.1-3.7
									c-4.2-2.6-5.6-6.7-5.6-11.5c0-3.7,2.7-9,7.2-11.3c3.2-1.5,8.4-2.1,13.4-1.6c2.2,0.2,4.3,0.6,6.2,1.1
									C40.7,170.3,41.7,172.2,47.1,177.5 M50.1,80.4c-2.2-0.2-4.2,0.5-5.6,1.9c-1.5,1.5-1.7,3.4-1.9,7.6
									c-0.1,2.5-0.2,6.1-0.3,10.7c-0.1,7.7-0.2,18.2-0.2,31.4c0,12.8,0,25.6,0.1,34.3c-1.6-1-3.4-1.8-5.8-2.6
									c-2.2-0.6-4.6-1.1-7.2-1.3c-6.2-0.5-12.1,0.2-15.8,2.1C7,167.5,3.6,174.8,3.6,180c0,9.3,4.6,14,8.4,16.3
									c2.8,1.7,6.9,3.4,18.3,4.4c7.2,0.6,13.2-0.2,17.8-2.3c5.2-2.4,8.5-6,9.6-10.7c0.3-1.3,0.5-3.2,0.4-6l0-4.2L58,113.9
									c2.6,1.4,5.5,2.8,8.6,4.2c5,2.2,6,3.9,6,4.3c0,1.1-0.3,2.8-2,4.2c-2.3,1.9-3,5-2,8c1,2.8,3.4,4.8,6.2,5
									c1.1,0.1,2.2-0.1,3.3-0.6c8-3.5,12.3-10.9,12.3-20.7c0-10-8.1-18.4-24-24.8c-4.6-1.9-6-3.1-6.4-3.4c-0.4-0.4-0.8-0.7-1.1-1
									c-1-0.8-1.1-0.9-1.2-2.1C57.2,83.1,53.4,80.7,50.1,80.4"/>
								<path d="M50.1,85.6c-0.8-0.1-1.5,0.1-2.1,0.7c-1.6,1.5-0.9,91.3-0.9,91.3c-5.4-5.3-6.4-7.2-11.7-8.8c-1.9-0.6-4-0.9-6.2-1.1
									c-5-0.4-10.3,0.1-13.4,1.6c-4.5,2.2-7.2,7.6-7.2,11.3c0,4.7,1.5,8.9,5.6,11.5c3.6,2.2,9.4,3.1,16.1,3.7
									c6.4,0.6,11.6-0.1,15.5-1.9c4-1.9,6.3-4.4,7.1-7.6c0.2-0.9,0.3-2.5,0.3-4.8l0-4.2L53,104.9c3.7,2.9,8.8,5.8,15.1,8.5
									c6.2,2.8,9.4,5.9,9.4,9.5c0,2.3-0.7,5.4-3.7,7.9c-1.5,1.3-0.7,3.6,0.9,3.7c0.3,0,0.7,0,1-0.2c8.4-3.7,9.6-11.5,9.6-16.4
									c0-7.5-6.9-14-20.5-19.5c-4-1.7-6.7-3.2-8.2-4.6c-1.4-1.4-3.5-2.4-4-6.6C52.7,86.5,51.4,85.7,50.1,85.6"/>
							</g>
						</g>
					</g>
				</g>
			</g>
		</g>
	</g>
</g>
<g id="輪郭">
	<g>
		<path class="st3" d="M281.1,186.3c0,16-0.3,29.1-33.8,45.1c-19.2,9.2-54.7,9.4-83.9,9.4c-42.9,0-66.6-4.2-90.8-19.2
			c-12.3-7.7-19.3-19.8-17.5-35.4c1-8.3,3-20.1,9.9-27.2c18.1-18.4,48.6-27.2,103-27.2c15.6,0,73.9,0.8,98.7,19
			C283.1,162.8,281.1,179.8,281.1,186.3z"/>
		<path class="st2" d="M281.1,186.3c0,16-0.3,29.1-33.8,45.1c-19.2,9.2-54.7,9.4-83.9,9.4c-42.9,0-66.6-4.2-90.8-19.2
			c-12.3-7.7-19.3-19.8-17.5-35.4c1-8.3,3-20.1,9.9-27.2c18.1-18.4,48.6-27.2,103-27.2c15.6,0,73.9,0.8,98.7,19
			C283.1,162.8,281.1,179.8,281.1,186.3z"/>
		<path class="st4" d="M281.1,186.3c0,16-0.3,29.1-33.8,45.1c-19.2,9.2-54.7,9.4-83.9,9.4c-42.9,0-66.6-4.2-90.8-19.2
			c-12.3-7.7-19.3-19.8-17.5-35.4c1-8.3,3-20.1,9.9-27.2c18.1-18.4,48.6-27.2,103-27.2c15.6,0,73.9,0.8,98.7,19
			C283.1,162.8,281.1,179.8,281.1,186.3z"/>
	</g>
</g>
<g id="輪郭のコピー">
	<g>
		<defs>
			<path id="SVGID_3_" d="M281.1,186.3c0,16-0.3,29.1-33.8,45.1c-19.2,9.2-54.7,9.4-83.9,9.4c-42.9,0-66.6-4.2-90.8-19.2
				c-12.3-7.7-19.3-19.8-17.5-35.4c1-8.3,3-20.1,9.9-27.2c18.1-18.4,48.6-27.2,103-27.2c15.6,0,73.9,0.8,98.7,19
				C283.1,162.8,281.1,179.8,281.1,186.3z"/>
		</defs>
		<clipPath id="SVGID_4_">
			<use xlink:href="#SVGID_3_"  style="overflow:visible;"/>
		</clipPath>
		<g class="st5">
			<g>
				<defs>
					<path id="SVGID_5_" d="M287.1,203.8c-39.8,25.3-74.2,40.8-122.3,37.5c-39.7-2.7-79.5-9.7-114-30.2c-2.9-20.4-5.4-40.9-8.3-61.4
						c71.4,63.5,176,46.6,252.1,0C292.2,167.8,289.7,185.8,287.1,203.8z"/>
				</defs>
				<clipPath id="SVGID_6_">
					<use xlink:href="#SVGID_5_"  style="overflow:visible;"/>
				</clipPath>
				<g class="st6">
					<path class="st7" d="M102.8,202.8c0.8-17.8-21.4-23.2-18.4-5.3"/>
					<path class="st8" d="M143.9,209.1c-0.3-7.6,5.4-12.7,11.5-13.7c6.1-0.9,14.3,4.6,16,14.7"/>
					<path class="st8" d="M107.8,211.8c0.9,14.8,31.4,23.5,31.5,4.9"/>
					<path d="M70.3,203.5c-1.1-0.5-2.2-1.2-3.4-2.3c-1.1-1.1-2.3-2.4-3.4-4.3c-0.3-0.4-0.6-1-0.8-1.5c-0.3-0.6-0.5-1.2-0.8-1.8
						c-0.5-1.3-0.7-2.8-0.6-3.8c0.1-0.5,0.2-0.9,0.4-1.3c0.2-0.3,0.4-0.6,0.6-0.8c0.3-0.2,0.4-0.3,0.7-0.4c0.3-0.1,0.5-0.2,0.9-0.2
						c1.3-0.1,2.9,1,4.1,2.4c1.3,1.4,2.3,3.1,3.2,4.9c0.8,1.8,1.4,3.8,1.4,5.7c0,0.9-0.2,1.7-0.5,2.3c-0.3,0.6-0.8,1-1.2,1.2
						c-1.5,1-3.1,1.7-4.8,2c-1.8,0.3-3.7,0.5-6.3-1.3c-1.3-0.9-2.9-2.6-4.2-4.8c-1.3-2.2-2.3-4.6-3-6.8c-0.7-2.2-1.3-4.3-1.6-6.3
						c-0.2-1-0.3-1.9-0.4-2.8c-0.1-0.9-0.1-1.9-0.2-2.8c-0.1-3.6,1-6.3,2.8-7.1c1.8-0.9,4.2-0.4,6.6,0.7c1.2,0.5,2.4,1.2,3.6,1.9
						c1.2,0.8,2.4,1.6,3.6,2.6c0.6,0.5,1.2,1,1.8,1.5c0.6,0.6,1.2,1.1,1.7,1.7c1.1,1.1,2.2,2.4,3.2,3.8c1,1.4,1.9,2.9,2.7,4.4
						c0.7,1.6,1.4,3.2,1.8,4.9c0.8,3.3,0.9,6.4,0.6,9.1c-0.3,2.8-1.1,5.2-2.2,7c-0.6,0.9-1.2,1.7-2,2.2c-0.4,0.3-0.8,0.5-1.2,0.7
						c-0.2,0.1-0.4,0.2-0.7,0.2c-0.1,0-0.2,0.1-0.4,0.1c-0.1,0-0.1,0-0.2,0c-0.1,0-0.3,0-0.4-0.1c-0.4-0.2-0.8-0.9-0.9-1.5
						s0.7-0.8,0.7-0.8c0,0-0.1-0.1-0.1-0.1c0,0,0.1,0,0.1,0c0.1,0,0.2-0.1,0.2-0.1c0.2-0.1,0.3-0.2,0.5-0.3c0.3-0.2,0.6-0.5,0.9-0.8
						c0.6-0.6,1.1-1.3,1.5-2.1c0.9-1.7,1.4-3.8,1.6-6.1c0.2-2.4,0.1-4.9-0.5-7.5c-0.6-2.6-1.7-5.1-3.3-7.5
						c-3.1-4.7-7.9-8.4-11.5-9.1c-1.9-0.4-3.4,0.1-4.3,1.3c-0.9,1.3-1.3,3.3-1.2,5.7c0.1,0.7,0.1,1.3,0.1,2c0.1,0.7,0.1,1.5,0.2,2.2
						c0.2,1.5,0.3,2.9,0.6,4.3c0.5,2.8,1.4,5.3,3.1,6.8c1.7,1.5,3.6,1.7,5.2,1.5c1.7-0.2,3.2-0.9,4.6-1.8c0.7-0.4,0.9-1,0.9-1.9
						c0-0.9-0.3-2.2-0.9-3.3c-1.1-2.4-3-4.6-4.1-4.2c-0.1,0-0.3,0.1-0.4,0.2c-0.1,0.2-0.2,0.2-0.4,0.4c-0.1,0.1-0.1,0.3-0.2,0.4
						c0,0.2-0.1,0.3-0.1,0.5c0,0.2,0,0.3,0,0.4c0,0.1,0.1,0.3,0.1,0.5c0.1,0.2,0.2,0.4,0.3,0.7c0.1,0.3,0.2,0.5,0.4,0.8
						c0.6,1.1,1.5,2.2,2.3,3.1c0.9,0.9,1.8,1.7,2.7,2.4c0,0,0,0,0,0c0.6,0.4,1.1,1.4,1,2.2C71.2,203.3,70.8,203.7,70.3,203.5z"/>
					<g>
						<path class="st2" d="M204.4,219.5c-5.8,0.8-14.3-1-9.5-6C199.4,208.7,209.2,214.3,204.4,219.5c-6.4,6.9-24.7,13.5-21.9-3.6
							c3-18.3,33.4-23.1,31.5-0.2c-0.8,9.4-8,13.2-8.8,13.6"/>
						<path d="M204.6,222c-3,0.2-5.8,0.1-9-1c-0.8-0.3-1.6-0.6-2.5-1.3c-0.4-0.3-0.9-0.8-1.2-1.4c-0.4-0.6-0.6-1.4-0.6-2.1
							c0-1.5,0.7-2.5,1.2-3.2c0.3-0.4,0.6-0.7,0.9-1c0.3-0.3,0.7-0.6,1.1-0.9c1.6-1.1,3.5-1.5,5.2-1.5c1.7,0,3.3,0.5,4.8,1.4
							c0.7,0.4,1.5,1,2.1,1.8c0.6,0.8,1.2,1.8,1.3,3.1c0.2,1.3-0.1,2.6-0.7,3.6c-0.3,0.5-0.6,1-0.9,1.4c-0.2,0.2-0.3,0.4-0.5,0.6
							c-0.2,0.2-0.2,0.2-0.4,0.4c-2.2,2.1-4.8,3.5-7.3,5c-1.3,0.7-2.6,1.5-4,2c-1.4,0.6-3,1-4.7,1.2c-1.7,0.2-3.9-0.2-5.7-1.4
							c-1.8-1.2-2.9-3.1-3.5-4.8c-0.6-1.7-0.8-3.3-0.9-4.8c0-0.8,0-1.5,0-2.3c0-0.7,0.1-1.5,0.2-2.3c0.1-0.8,0.3-1.6,0.5-2.4
							c0.2-0.8,0.6-1.5,0.9-2.3c0.7-1.5,1.6-2.8,2.7-4c2.2-2.5,4.9-4.2,7.7-5.5c2.8-1.3,5.8-2,8.7-2.3c2.9-0.2,5.9,0,8.5,1.3
							c2.6,1.2,5,3.5,6.1,6.6c1.2,3,1.5,6.4,1.2,9.6c-0.1,0.8-0.2,1.7-0.3,2.5c-0.2,0.8-0.4,1.7-0.7,2.5c-0.5,1.6-1.3,3.1-2.3,4.5
							c-1.9,2.6-4.5,4.5-7.2,5.3c0,0,0,0,0,0c-0.4,0.1-0.8-0.1-0.9-0.6c-0.1-0.3,0.1-0.7,0.3-0.9c2.2-1.7,4-3.7,5.2-6
							c0.6-1.1,1-2.3,1.3-3.5c0.2-0.6,0.2-1.2,0.3-1.9c0-0.6,0.1-1.2,0.1-1.9c0.1-2.7-0.3-5.2-1-7.4c-0.1-0.3-0.2-0.5-0.3-0.8
							c-0.1-0.3-0.2-0.5-0.3-0.8c-0.3-0.5-0.5-1-0.9-1.4c-0.6-0.9-1.5-1.6-2.4-2.2c-0.9-0.6-2-1-3.1-1.3c-1.1-0.2-2.3-0.4-3.6-0.3
							c-1.2,0.1-2.5,0.3-3.7,0.7c-1.2,0.3-2.4,0.9-3.5,1.6c-2.2,1.3-4,3.1-5.2,5.2c-0.7,1-1.1,2.1-1.5,3.2c-0.3,1.1-0.6,2.2-0.7,3.4
							c-0.1,0.6-0.1,1.2-0.1,1.8c0,0.6,0,1.3,0,1.9c0,1.2,0.1,2.4,0.3,3.4c0.5,2.1,1.2,3,3.6,3.3c2.3,0.1,4.9-0.8,7.2-2.1
							c2.3-1.4,4.2-3.4,6-5.3c0.9-0.9,1-1.3,1-1.7c0.1-0.3-0.4-1.2-1.2-1.7c-0.8-0.6-1.8-1-2.8-1c-1,0-1.9,0.2-2.7,0.7
							c-0.2,0.1-0.3,0.3-0.5,0.4c-0.2,0.2-0.4,0.4-0.5,0.6c-0.3,0.4-0.4,0.7-0.3,0.6c0,0,0-0.1,0-0.1c0,0,0.1,0.1,0.2,0.2
							c0.3,0.2,0.7,0.4,1.3,0.6c2.1,0.7,4.8,0.7,7.2,0.3c0,0,0,0,0,0c1.2-0.2,2.4,0.7,2.5,2c0.2,1.3-0.7,2.6-2,2.8
							C204.7,221.9,204.6,222,204.6,222z"/>
					</g>
				</g>
			</g>
		</g>
	</g>
</g>
<g id="おんぷ">
	<g>
		<g>
			<g class="st0">
				<defs>
					<polygon id="SVGID_7_" class="st0" points="230.1,230.9 229.9,108.8 316.8,116.4 317.1,238.5 					"/>
				</defs>
				<clipPath id="SVGID_8_">
					<use xlink:href="#SVGID_7_"  style="overflow:visible;"/>
				</clipPath>
				<g class="st9">
					<g>
						<g>
							<g>
								<path class="st2" d="M273.6,210c0,0-0.7-89.8,0.9-91.3c0.6-0.6,1.3-0.7,2.1-0.7c1.3,0.1,2.6,0.9,2.7,1.6
									c0.5,4.2,2.6,5.1,4,6.6c1.4,1.4,4.1,3,8.2,4.6c13.7,5.5,20.5,12,20.5,19.5c0,4.9-1.2,12.6-9.6,16.4c-0.4,0.2-0.7,0.2-1,0.2
									c-1.6-0.1-2.5-2.4-0.9-3.7c2.9-2.5,3.7-5.6,3.7-7.9c0-3.5-3.1-6.7-9.4-9.5c-6.3-2.7-11.4-5.6-15.1-8.5l0.2,72.3l0,4.2
									c0,2.3-0.1,3.9-0.3,4.8c-0.8,3.2-3.1,5.7-7.1,7.6c-4,1.9-9.2,2.5-15.5,1.9c-6.7-0.6-12.5-1.5-16.1-3.7
									c-4.2-2.6-5.6-6.7-5.6-11.4c0-3.7,2.6-9.1,7.2-11.3c3.2-1.5,8.4-2.1,13.5-1.6c2.2,0.2,4.3,0.6,6.2,1.1
									C267.2,202.7,268.3,204.7,273.6,210 M276.6,112.8c-2.2-0.2-4.1,0.5-5.6,1.9c-1.6,1.5-1.7,3.4-1.9,7.6
									c-0.1,2.5-0.2,6.1-0.3,10.7c-0.1,7.7-0.2,18.2-0.2,31.4c0,12.8,0,25.6,0.1,34.3c-1.5-1-3.3-1.8-5.8-2.6
									c-2.2-0.6-4.6-1.1-7.2-1.3c-6.2-0.5-12.1,0.2-15.8,2.1c-6.3,3.1-9.7,10.3-9.7,15.6c0,9.3,4.6,14,8.4,16.3
									c2.8,1.7,6.9,3.4,18.3,4.4c7.2,0.6,13.2-0.2,17.8-2.3c5.2-2.5,8.5-6,9.6-10.7c0.3-1.3,0.5-3.2,0.4-6l0-4.2l-0.2-63.6
									c2.6,1.4,5.5,2.8,8.6,4.2c5,2.2,6,3.9,6,4.3c0,1.1-0.3,2.8-2,4.2c-2.3,1.9-3,5.1-2,8c1,2.8,3.4,4.8,6.2,5
									c1.1,0.1,2.2-0.1,3.3-0.6c8-3.5,12.3-10.9,12.3-20.7c0-10-8.1-18.3-24-24.8c-4.6-1.9-6-3.1-6.3-3.4c-0.4-0.4-0.8-0.7-1.1-1
									c-1-0.8-1.1-0.9-1.2-2.1C283.7,115.5,279.9,113.1,276.6,112.8"/>
								<path d="M276.6,118c-0.8-0.1-1.5,0.1-2.1,0.7c-1.6,1.5-0.9,91.3-0.9,91.3c-5.4-5.3-6.4-7.2-11.7-8.8c-1.9-0.6-4-0.9-6.2-1.1
									c-5-0.4-10.3,0.1-13.5,1.6c-4.5,2.2-7.2,7.6-7.2,11.3c0,4.7,1.5,8.9,5.6,11.4c3.6,2.2,9.4,3.1,16.1,3.7
									c6.4,0.6,11.6-0.1,15.5-1.9c4-1.9,6.3-4.4,7.1-7.6c0.2-0.8,0.3-2.4,0.3-4.8l0-4.2l-0.2-72.3c3.7,2.9,8.8,5.8,15.1,8.5
									c6.2,2.8,9.4,5.9,9.4,9.5c0,2.3-0.7,5.4-3.7,7.9c-1.5,1.3-0.7,3.6,0.9,3.7c0.3,0,0.7,0,1-0.2c8.4-3.7,9.6-11.5,9.6-16.4
									c0-7.5-6.9-14-20.5-19.5c-4-1.7-6.7-3.2-8.2-4.6c-1.4-1.4-3.5-2.4-4-6.6C279.2,119,277.9,118.1,276.6,118"/>
							</g>
						</g>
					</g>
				</g>
			</g>
		</g>
	</g>
</g>
<g id="_x32_" class="st10">
	<g class="st11">
		<g>
			<g class="st0">
				<defs>
					<polygon id="SVGID_9_" class="st0" points="33.8,194.4 33.2,-104.1 286,-82 286.5,216.5 					"/>
				</defs>
				<clipPath id="SVGID_10_">
					<use xlink:href="#SVGID_9_"  style="overflow:visible;"/>
				</clipPath>
				<g class="st12">
					<g>
						<g>
							<g>
								<path class="st2" d="M79.9,0.4c-1.8-0.2-3.6-0.3-5.4-0.8c-7.9-2.3-13.7-7.3-13.7-14.4c0-1.6,3.4-13.3,3.8-14.9
									C68.1-43.3,73-47,85.2-56.9c16.2-12.8,51.9-22.6,87.3-19.5c54.9,4.8,77,36.1,77,77.1c0.1,39.3-27.7,54.7-60.5,70.2
									l-23.8,10.8c-40,19.1-71.4,59.4-63.2,67.4c0.6,0.6,2,0.9,4,1.1c6,0.5,17.1-0.2,25,0.4c26.7,2.3,60.5,4.2,60.5,4.2l51.1,6.5
									c8.7,0.8,22.8,9,26.8,14.8c2.8,4.1,5.9,20.2-9.3,20c-0.9,0-1.6-0.1-2.3-0.1c-4.6-0.4-7.3-1.8-32.6-4
									c-29.1-2.5-38.4-1.3-83.7-4.2c-15.1-1-27.3-1.9-36.7-2.8c-18.9-1.7-27.2-2.8-27.2-2.8C64,181,48.6,164.5,48.6,151.6
									c0-11.3,19.7-44,25.5-52.8c13-21.1,26.5-29.9,60.4-46.6l34.8-13.6c35.4-17.5,45-17.5,44.9-42c0-21.1-24.3-33.6-47.6-35.6
									c-3.1-0.3-6.1-0.4-9.1-0.3c-40.6,1.4-45.8,4.6-52.3,26.6C103.1-5.7,87.1,1,79.9,0.4 M172.5-91.9c-36.3-3.2-76.2,6-96.8,22.2
									L74.8-69c-12.5,10-20,16.1-24.7,33.9l-0.1,0.3l0,0.2c-0.1,0.5-0.4,1.6-0.8,2.9c-2.9,10.4-3.4,12.8-3.4,15.6
									C45.9-2,56,10.1,71.7,14.7l0.3,0.1c3,0.8,5.8,1,7.9,1.2c10.8,0.9,34.6-7.1,39.5-22.6l0.1-0.2c3-10.1,4.5-11.6,6.5-12.6
									c5-2.6,16.9-3.5,33.2-4.1c2.4-0.1,4.9,0,7.4,0.2c15.7,1.4,32.6,8.9,32.6,18.7c0,11.3,0,11.3-22.2,21.7
									c-4.3,2-9.1,4.3-14.6,7l-34.8,13.6l-0.5,0.3C93.2,54.7,76.7,64.6,61.4,89.4c-3,4.6-9.5,15.2-15.5,26.4
									c-10.9,20.5-12.3,28.9-12.3,34.5c0,21.5,22,45.3,43.6,47.4c1.9,0.3,10.5,1.4,27.6,2.9c11.1,1,23.6,1.9,37.1,2.8
									c22.4,1.4,36.5,1.9,47.7,2.2c11.9,0.4,21.2,0.7,35.7,1.9c17.1,1.5,23.4,2.6,27.1,3.2c1.9,0.3,3.5,0.6,5.5,0.8
									c1,0.1,2.1,0.2,3.3,0.2c10.7,0.2,19.2-4.8,23.1-13.6c4.6-10.3,1.8-23.4-3.1-30.5c-7-10.1-25.5-20.6-38.3-21.9l-51.3-6.6
									l-0.5,0c-0.3,0-33.9-2-60.1-4.2c-2.4-0.2-4.9-0.3-7.5-0.3c9.4-11.7,26.5-27.9,48.7-38.5l23.9-10.9
									c17.1-8.1,33.5-16.3,46.1-28.6c15-14.5,22.3-32.4,22.2-54.6c0-25.6-7.8-47.6-22.6-63.7C226-79.1,202.6-89.3,172.5-91.9"/>
								<path class="st13" d="M172.5-76.3c-35.4-3.1-71.1,6.7-87.3,19.5C73-47,68.1-43.3,64.5-29.7c-0.4,1.6-3.8,13.3-3.8,14.9
									c0,7.1,5.8,12.1,13.7,14.4c1.8,0.5,3.6,0.6,5.4,0.8c7.2,0.6,23.2-6.1,25.3-13c6.5-22,11.7-25.2,52.3-26.6
									c3-0.1,6.1,0,9.1,0.3c23.3,2,47.5,14.6,47.6,35.6c0,24.5-9.6,24.4-44.9,42l-34.8,13.6C100.5,68.9,87,77.7,74.1,98.8
									c-5.8,8.8-25.5,41.5-25.5,52.8c0,12.9,15.4,29.4,29.1,30.6c0,0,8.3,1.2,27.2,2.8c9.5,0.8,21.6,1.8,36.7,2.8
									c45.3,2.9,54.6,1.7,83.7,4.2c25.3,2.2,28,3.6,32.6,4c0.7,0.1,1.4,0.1,2.3,0.1c15.1,0.3,12.1-15.9,9.3-20
									c-4-5.8-18.2-14.1-26.8-14.8l-51.1-6.5c0,0-33.8-2-60.5-4.2c-7.9-0.7-19,0.1-25-0.4c-2-0.2-3.5-0.5-4-1.1
									c-8.2-8,23.2-48.3,63.2-67.4l23.8-10.8c32.8-15.5,60.6-30.8,60.5-70.2C249.5-40.2,227.4-71.5,172.5-76.3"/>
							</g>
						</g>
					</g>
				</g>
			</g>
		</g>
	</g>
</g>
</svg>
