<?xml version="1.0" encoding="utf-8"?>
<!-- Generator: Adobe Illustrator 25.1.0, SVG Export Plug-In . SVG Version: 6.00 Build 0)  -->
<svg version="1.1" id="レイヤー_1" xmlns="http://www.w3.org/2000/svg" xmlns:xlink="http://www.w3.org/1999/xlink" x="0px"
	 y="0px" viewBox="0 0 320 103" style="enable-background:new 0 0 320 103;" xml:space="preserve">
<style type="text/css">
	.st0{display:none;}
	.st1{display:inline;}
	.st2{display:none;fill:none;stroke:#FFFFFF;stroke-width:15.62;stroke-miterlimit:10;}
	.st3{fill:none;stroke:#FFFFFF;stroke-width:5.21;stroke-miterlimit:10;}
	.st4{display:none;fill:none;stroke:#FFFFFF;stroke-width:10;stroke-linecap:round;stroke-miterlimit:10;}
	.st5{fill:none;stroke:#FFFFFF;stroke-width:5.21;stroke-linecap:round;stroke-miterlimit:10;}
	.st6{display:none;fill:#FFFFFF;stroke:#FFFFFF;stroke-width:10;stroke-linecap:round;stroke-miterlimit:10;}
	.st7{fill:#FFFFFF;}
	.st8{fill:none;}
</style>
<g id="レイヤー_2_1_" class="st0">
	<rect x="-14.6" y="-20.5" class="st1" width="362.7" height="139.5"/>
</g>
<g id="レイヤー_1_1_">
	<g id="輪郭">
		<g>
			<path class="st2" d="M253.5,51.4c0,12.8-0.3,23.4-28.2,36.2c-16,7.4-45.6,7.6-70,7.6c-35.8,0-55.6-3.4-75.8-15.4
				c-10.3-6.1-16.1-15.9-14.6-28.4c0.8-6.7,2.5-16.2,8.3-21.8c15.1-14.7,40.6-21.8,86-21.8c13,0,61.7,0.7,82.4,15.2
				C255.1,32.6,253.5,46.2,253.5,51.4z"/>
			<path class="st3" d="M253.5,51.4c0,12.8-0.3,23.4-28.2,36.2c-16,7.4-45.6,7.6-70,7.6c-35.8,0-55.6-3.4-75.8-15.4
				c-10.3-6.1-16.1-15.9-14.6-28.4c0.8-6.7,2.5-16.2,8.3-21.8c15.1-14.7,40.6-21.8,86-21.8c13,0,61.7,0.7,82.4,15.2
				C255.1,32.6,253.5,46.2,253.5,51.4z"/>
		</g>
	</g>
	<g id="口">
		<g>
			<path class="st4" d="M144,58.2c-0.5,12.6,30.3,19.2,30.3,0"/>
			<path class="st5" d="M144,58.2c-0.5,12.6,30.3,19.2,30.3,0"/>
		</g>
	</g>
	<g id="目">
		<g>
			<path class="st4" d="M137.9,50.3c-0.4-21.9-24.8-15.9-23,0"/>
			<path class="st5" d="M137.9,50.3c-0.4-21.9-24.8-15.9-23,0"/>
		</g>
		<g>
			<path class="st4" d="M178.3,50.5c-0.3-6.3,4-11.9,10.1-13.3c5.3-1,12.4,4.1,13.4,13.2"/>
			<path class="st5" d="M178.3,50.5c-0.3-6.3,4-11.9,10.1-13.3c5.3-1,12.4,4.1,13.4,13.2"/>
		</g>
	</g>
	<g id="頬">
		<g>
			<path class="st6" d="M96.3,60.4c-5.3,0-11.3-3.9-6.7-7.8S101.3,56.5,96.3,60.4s-19.5,13.4-19.1-4.6s32-17.6,28.3,2.8
				C104.1,66.4,97.8,70,97,70"/>
			<path class="st7" d="M96.3,61.7c-1.4,0.1-2.8,0-4.1-0.4c-1.4-0.4-2.7-1-3.9-1.9c-0.3-0.3-0.6-0.5-0.9-0.9
				c-0.3-0.3-0.5-0.7-0.7-1.1c-0.4-0.9-0.5-1.9-0.3-2.9c0.1-0.5,0.3-0.9,0.6-1.3c0.2-0.3,0.5-0.7,0.8-1l0.9-0.8
				c0.3-0.2,0.7-0.4,1-0.7c1.5-0.7,3.2-0.8,4.8-0.2c1.4,0.5,2.6,1.5,3.5,2.7c1,1.3,1.4,2.8,1.3,4.4c0,0.4-0.1,0.8-0.3,1.2
				c-0.1,0.4-0.3,0.8-0.6,1.1c-0.1,0.2-0.2,0.3-0.3,0.5l-0.4,0.4c-0.3,0.3-0.5,0.5-0.8,0.7c-2,1.6-4.2,2.9-6.4,4.1
				c-2.4,1.4-5.1,2.1-7.8,2.1c-1.6-0.1-3.2-0.7-4.4-1.8c-1.2-1.1-2-2.4-2.5-3.9c-0.5-1.3-0.8-2.7-0.9-4.1c-0.1-0.7-0.1-1.4-0.1-2
				s0.1-1.4,0.2-2.2c0.5-2.9,1.9-5.7,4-7.8c2.1-1.9,4.6-3.3,7.3-3.9c1.3-0.3,2.7-0.5,4-0.6s2.7,0,4,0.1c0.7,0.1,1.3,0.2,2,0.3
				s1.3,0.3,1.9,0.6c1.3,0.4,2.5,1,3.7,1.8s2.2,1.7,3.1,2.8s1.5,2.3,2,3.6c0.9,2.6,1,5.4,0.4,8.1c-0.8,4-2.9,7.6-6.1,10.1
				c-0.5,0.4-1.1,0.8-1.7,1.1c-0.3,0.2-0.6,0.3-0.9,0.5c-0.2,0.1-0.3,0.2-0.5,0.2l-0.3,0.1c-0.2,0.1-0.4,0.1-0.6,0.1
				c-0.6,0-1-0.5-1-1c0-0.6,0.5-1,1-1h-0.1l0.1-0.1l0.3-0.2c0.2-0.2,0.5-0.3,0.7-0.5c0.5-0.3,0.9-0.7,1.3-1.1
				c0.8-0.8,1.6-1.7,2.2-2.6c1.3-1.9,2.1-4,2.5-6.2s0.3-4.4-0.3-6.6c-0.6-2.1-1.9-3.9-3.7-5.2c-3.8-2.6-8.7-3.2-13-1.4
				c-2,0.8-3.8,2.2-5.1,3.9c-1.2,1.6-1.9,3.6-2.1,5.6c0,0.5-0.1,1-0.1,1.5s0,1.1,0,1.7c0,1.1,0,2.1,0.2,3.2c0.2,2,1,3.6,2.9,4
				s4.3-0.5,6.3-1.5c2.1-1.1,4.1-2.4,6-3.8c0.7-0.5,1.2-1.3,1.3-2.2c0-0.9-0.3-1.8-0.9-2.5c-0.6-0.8-1.4-1.3-2.3-1.7
				c-0.8-0.3-1.7-0.3-2.4,0.2l-0.5,0.4l-0.5,0.5c-0.1,0.2-0.2,0.4-0.3,0.5s-0.1,0.3-0.1,0.4s0,0.2,0,0.3s0,0.2,0.1,0.4
				c0.1,0.1,0.2,0.3,0.3,0.4c0.1,0.2,0.3,0.3,0.5,0.4c0.8,0.7,1.7,1.2,2.6,1.5c1,0.4,2.1,0.6,3.2,0.8l0,0c0.7,0.1,1.3,0.7,1.2,1.4
				C97.5,61.1,97,61.7,96.3,61.7L96.3,61.7z"/>
		</g>
		<g>
			<path class="st6" d="M230.1,60.4c-5.3,0-12.7-2.2-8.1-6.1S235,56.5,230.1,60.4s-21.5,13.2-19.1-4.6c2.5-17.7,32-17.5,28.2,2.9
				c-1.4,7.8-8.5,10-9.1,10.2"/>
			<path class="st7" d="M230.1,62.5c-2.7-0.1-5.5-0.6-8-1.6c-0.8-0.3-1.5-0.8-2.1-1.3c-0.4-0.4-0.8-0.8-1-1.3
				c-0.3-0.6-0.4-1.2-0.4-1.9c0.1-1,0.6-2,1.3-2.7c0.3-0.3,0.6-0.6,0.9-0.8c0.3-0.3,0.6-0.5,1-0.7c1.4-0.8,3.1-1,4.7-0.8
				c1.5,0.2,3,0.8,4.3,1.7c0.7,0.5,1.3,1.1,1.8,1.8c0.6,0.8,0.9,1.8,0.9,2.8c0,1.1-0.3,2.1-0.9,3c-0.3,0.4-0.6,0.7-0.9,1l-0.5,0.4
				l-0.4,0.3c-2.2,1.4-4.5,2.6-6.9,3.5c-1.2,0.6-2.4,1-3.6,1.5c-1.3,0.5-2.7,0.7-4.1,0.8c-1.7,0.1-3.4-0.4-4.8-1.4
				c-1.3-1.1-2.3-2.6-2.7-4.2c-0.4-1.4-0.6-2.9-0.5-4.3c0-0.7,0.1-1.4,0.1-2c0.1-0.7,0.2-1.4,0.3-2.1c0.1-0.7,0.3-1.4,0.6-2.1
				c0.2-0.7,0.6-1.3,0.9-2c0.7-1.3,1.6-2.4,2.6-3.4c2-1.9,4.4-3.4,7.1-4.2c2.6-0.8,5.2-1.2,7.9-1c2.8,0.1,5.4,0.9,7.8,2.3
				c2.5,1.5,4.4,3.8,5.3,6.6c0.9,2.7,1,5.5,0.4,8.3c-0.1,0.7-0.3,1.3-0.5,2s-0.5,1.3-0.9,1.9c-0.6,1.3-1.5,2.4-2.5,3.4
				c-2,1.9-4.4,3.1-7.1,3.5l0,0c-0.4,0.1-0.7-0.2-0.8-0.6c0-0.3,0.1-0.6,0.3-0.7c2-1.1,3.8-2.6,5.1-4.4c0.6-0.8,1.1-1.8,1.5-2.8
				c0.2-0.5,0.3-1,0.5-1.5c0.1-0.5,0.2-1,0.3-1.6c0.3-2.1,0.2-4.3-0.4-6.3c-0.1-0.2-0.1-0.5-0.2-0.7l-0.3-0.7
				c-0.2-0.5-0.5-0.9-0.7-1.3c-0.6-0.9-1.3-1.6-2.1-2.3c-0.9-0.7-1.8-1.2-2.8-1.6c-1-0.4-2.1-0.6-3.2-0.7c-4.5-0.4-8.8,1.6-11.5,5.2
				c-0.6,0.8-1.1,1.7-1.5,2.7c-0.4,0.9-0.7,1.9-0.9,2.9c-0.1,0.5-0.2,1-0.2,1.6s-0.1,1.1-0.1,1.6c-0.1,1-0.1,2,0.1,3
				c0.3,1.8,0.9,2.7,2.9,3c2.2,0.1,4.4-0.4,6.4-1.4c2.1-1.1,4-2.5,5.7-4c0.9-0.7,1-1,1.1-1.3c-0.1-0.6-0.4-1.2-0.9-1.6
				c-0.7-0.6-1.5-1-2.4-1.1c-0.8-0.1-1.7,0-2.4,0.4c-0.2,0.1-0.3,0.2-0.5,0.3s-0.3,0.3-0.5,0.4c-0.2,0.1-0.3,0.3-0.4,0.5v-0.1
				c0.1,0.1,0.1,0.1,0.2,0.2c0.3,0.3,0.7,0.5,1.1,0.6c2.1,0.8,4.2,1.1,6.4,1l0,0c1.1,0,2.1,0.9,2.1,2
				C232.2,61.5,231.3,62.5,230.1,62.5L230.1,62.5z"/>
		</g>
	</g>
	<g id="おんぷ右">
		<g>
			<path class="st8" d="M275.3,87.3c-8.5,0-11.5-1-13.6-2c-2.8-1.4-6.2-4.5-6.2-11c0.3-4.9,3-9.2,7.2-11.6c2.8-1.5,7.2-2.4,11.8-2.4
				c1.8,0,3.6,0.1,5.3,0.5c1.5,0.3,2.9,0.8,4.3,1.5c0-6.2,0-15.2,0-24.3c0-9.3,0.1-16.8,0.2-22.3c0.1-3.2,0.1-5.8,0.2-7.6
				c0.2-3,0.3-4.4,1.4-5.5s2.6-1.7,4.1-1.7c2.5,0,5.3,1.5,5.6,4.2c0.1,0.8,0.2,0.9,0.9,1.4c0.2,0.2,0.5,0.4,0.8,0.7s1.3,1,4.7,2
				c12,3.5,18,8.8,18,15.9s-3.3,12.4-9.2,15.5c-0.8,0.4-1.6,0.6-2.4,0.6c-2.1,0-3.9-1.3-4.6-3.2c-0.8-2.1-0.2-4.4,1.5-5.8
				c0.9-0.8,1.5-1.9,1.5-3.1c0-0.2-0.8-1.4-4.4-2.7c-2.2-0.7-4.3-1.5-6.4-2.4v45.1V72c0,1.4-0.1,2.9-0.3,4.3
				c-0.8,3.4-3.2,6.1-7.1,8.2C285.1,86.3,280.6,87.3,275.3,87.3z"/>
			<path class="st7" d="M309.2,37.3c-1.6,0.8-2.8-1.1-1.5-2.4c1.7-1.5,2.7-3.6,2.7-5.8c0-2.5-2.3-4.6-6.9-6.1
				c-3.9-1.2-7.7-2.9-11.2-5.1l0.1,51.2V72c0,1.1,0,2.3-0.2,3.4c-0.6,2.3-2.3,4.2-5.3,5.8s-6.8,2.4-11.5,2.4c-5,0-9.3-0.3-12-1.6
				c-3.1-1.6-4.2-4.4-4.2-7.8c0.3-3.5,2.3-6.7,5.4-8.4c3.4-1.9,10-2.5,14.6-1.6c4,0.8,4.7,2.1,8.7,5.5c0,0-0.4-63.6,0.8-64.7
				s3.5-0.4,3.5,0.4c0.4,2.9,1.9,3.5,3,4.4c1.8,1.3,3.8,2.2,6,2.8c10.1,3.1,15.2,7.2,15.2,12.6C316.3,28.6,315.4,34.2,309.2,37.3z"
				/>
		</g>
	</g>
	<g id="おんぷ左">
		<g>
			<path class="st8" d="M19.8,87.3c-8.5,0-11.5-1-13.6-2C3.4,83.9,0,80.8,0,74.3c0.3-4.9,3-9.2,7.2-11.6c2.8-1.5,7.2-2.4,11.8-2.4
				c1.8,0,3.6,0.1,5.3,0.5c1.5,0.3,2.9,0.8,4.2,1.5c0-6.1,0-15.2,0-24.3c0-9.3,0.1-16.8,0.2-22.3c0.1-3.3,0.1-5.8,0.2-7.6
				c0.2-3,0.3-4.3,1.4-5.5c1.1-1.1,2.6-1.7,4.2-1.7c2.5,0,5.3,1.5,5.6,4.2C40.2,5.9,40.3,6,41,6.5c0.3,0.2,0.6,0.4,0.8,0.7
				c0.2,0.2,1.3,1,4.7,2c11.8,3.6,17.8,9,17.8,16S61,37.6,55.1,40.7c-0.8,0.4-1.6,0.6-2.4,0.6c-2.1,0-3.9-1.3-4.6-3.2
				c-0.8-2-0.2-4.4,1.5-5.8c0.9-0.8,1.5-1.9,1.5-3.1c0-0.2-0.8-1.4-4.4-2.7c-2.2-0.7-4.3-1.5-6.4-2.4v45V72c0.1,1.4-0.1,2.9-0.3,4.3
				c-0.8,3.4-3.2,6.1-7.1,8.2C29.6,86.4,25.1,87.3,19.8,87.3z"/>
			<path class="st7" d="M53.7,37.4c-1.6,0.8-2.8-1.1-1.4-2.4c1.7-1.5,2.7-3.6,2.7-5.8c0-2.5-2.3-4.6-6.9-6.1
				c-3.9-1.2-7.7-2.9-11.2-5.1v51.2v2.9c0,1.1,0,2.3-0.2,3.4c-0.6,2.3-2.3,4.2-5.3,5.8s-6.8,2.3-11.5,2.3c-5,0-9.3-0.3-12-1.6
				c-3.1-1.6-4.2-4.4-4.2-7.8C4,70.7,6,67.5,9,65.8c3.4-1.9,10-2.5,14.6-1.6c4,0.8,4.7,2.1,8.7,5.5c0,0-0.4-63.6,0.8-64.7
				c1.2-1.2,3.5-0.3,3.6,0.4c0.3,2.9,1.9,3.5,3,4.4s3.1,1.8,6,2.8c10.1,3.1,15.2,7.2,15.2,12.6C60.8,28.7,59.9,34.2,53.7,37.4z"/>
		</g>
	</g>
</g>
</svg>
