<svg xmlns="http://www.w3.org/2000/svg" width="320" height="103" viewBox="0 0 320 103">
  <defs>
    <style>
      .cls-1, .cls-3, .cls-4, .cls-5 {
        fill: none;
        stroke-miterlimit: 10;
      }

      .cls-1, .cls-4 {
        stroke: #fff;
      }

      .cls-1 {
        stroke-width: 15.62px;
      }

      .cls-2 {
        fill: #fff;
      }

      .cls-3, .cls-5 {
        stroke: #000;
        stroke-width: 5.21px;
      }

      .cls-4, .cls-5 {
        stroke-linecap: round;
      }

      .cls-4 {
        stroke-width: 10px;
      }
    </style>
  </defs>
  <g id="輪郭">
    <g>
      <path class="cls-1" d="M253.94,134.62c0,12.81-.26,23.37-28.22,36.22-16,7.37-45.65,7.55-70,7.55-35.81,0-55.63-3.35-75.76-15.4-10.26-6.14-16.14-15.88-14.64-28.37.81-6.67,2.5-16.15,8.31-21.81,15.13-14.74,40.59-21.8,86-21.8,13,0,61.7.65,82.4,15.24C255.59,115.82,253.94,129.43,253.94,134.62Z" transform="translate(-0.44 -83.2)"/>
      <path class="cls-2" d="M253.94,134.62c0,12.81-.26,23.37-28.22,36.22-16,7.37-45.65,7.55-70,7.55-35.81,0-55.63-3.35-75.76-15.4-10.26-6.14-16.14-15.88-14.64-28.37.81-6.67,2.5-16.15,8.31-21.81,15.13-14.74,40.59-21.8,86-21.8,13,0,61.7.65,82.4,15.24C255.59,115.82,253.94,129.43,253.94,134.62Z" transform="translate(-0.44 -83.2)"/>
      <path class="cls-3" d="M253.94,134.62c0,12.81-.26,23.37-28.22,36.22-16,7.37-45.65,7.55-70,7.55-35.81,0-55.63-3.35-75.76-15.4-10.26-6.14-16.14-15.88-14.64-28.37.81-6.67,2.5-16.15,8.31-21.81,15.13-14.74,40.59-21.8,86-21.8,13,0,61.7.65,82.4,15.24C255.59,115.82,253.94,129.43,253.94,134.62Z" transform="translate(-0.44 -83.2)"/>
    </g>
  </g>
  <g id="口">
    <g>
      <path class="cls-4" d="M144.4,141.45c-.47,12.64,30.27,19.17,30.27,0" transform="translate(-0.44 -83.2)"/>
      <path class="cls-5" d="M144.4,141.45c-.47,12.64,30.27,19.17,30.27,0" transform="translate(-0.44 -83.2)"/>
    </g>
  </g>
  <g id="目">
    <g>
      <path class="cls-4" d="M138.38,133.48c-.35-21.95-24.78-15.93-23,0" transform="translate(-0.44 -83.2)"/>
      <path class="cls-5" d="M138.38,133.48c-.35-21.95-24.78-15.93-23,0" transform="translate(-0.44 -83.2)"/>
    </g>
    <g>
      <path class="cls-4" d="M178.74,133.66a12.84,12.84,0,0,1,10.15-13.26c5.33-1,12.43,4.07,13.43,13.24" transform="translate(-0.44 -83.2)"/>
      <path class="cls-5" d="M178.74,133.66a12.84,12.84,0,0,1,10.15-13.26c5.33-1,12.43,4.07,13.43,13.24" transform="translate(-0.44 -83.2)"/>
    </g>
  </g>
  <g id="頬">
    <g>
      <path class="cls-4" d="M96.79,143.57c-5.31,0-11.33-3.89-6.73-7.79s11.68,3.9,6.73,7.79S77.32,157,77.67,139s32-17.55,28.32,2.83c-1.42,7.79-7.79,11.33-8.5,11.33" transform="translate(-0.44 -83.2)"/>
      <path d="M96.79,144.9a12.18,12.18,0,0,1-4.12-.42,10.12,10.12,0,0,1-3.89-1.92,7,7,0,0,1-.87-.85,6.36,6.36,0,0,1-.73-1.12,4.36,4.36,0,0,1-.31-2.92,5.78,5.78,0,0,1,.56-1.29,11.29,11.29,0,0,1,.77-1l.86-.77c.34-.23.7-.44,1-.66a5.92,5.92,0,0,1,4.78-.22,7.9,7.9,0,0,1,3.54,2.71,6.46,6.46,0,0,1,1.32,4.4,4.18,4.18,0,0,1-.28,1.21,3.6,3.6,0,0,1-.57,1.1,4.39,4.39,0,0,1-.34.5l-.42.41a7.21,7.21,0,0,1-.82.73,43.14,43.14,0,0,1-6.45,4.13A15.4,15.4,0,0,1,83,151a7.12,7.12,0,0,1-4.42-1.82,9.68,9.68,0,0,1-2.54-3.9,15.46,15.46,0,0,1-.92-4.12c-.08-.69-.06-1.35-.08-2s.1-1.44.16-2.16a13.73,13.73,0,0,1,4-7.75,16.49,16.49,0,0,1,7.33-3.91,22.53,22.53,0,0,1,4-.64,22,22,0,0,1,4,.11c.66.06,1.31.22,2,.33s1.3.31,1.92.55a15.3,15.3,0,0,1,3.65,1.75,14.14,14.14,0,0,1,3.06,2.78,12.18,12.18,0,0,1,2,3.65,15.52,15.52,0,0,1,.45,8.09,17.07,17.07,0,0,1-6.1,10.15,15.6,15.6,0,0,1-1.65,1.14,8.77,8.77,0,0,1-.91.49,5.08,5.08,0,0,1-.52.22l-.3.1a2.46,2.46,0,0,1-.56.1,1,1,0,0,1,0-2.08s-.13,0-.11,0l.14-.07.31-.19c.22-.16.46-.3.68-.47a13.5,13.5,0,0,0,1.29-1.11,16.46,16.46,0,0,0,2.2-2.6,15.66,15.66,0,0,0,2.47-6.21,14.35,14.35,0,0,0-.32-6.57,10,10,0,0,0-3.68-5.2,13.69,13.69,0,0,0-13-1.42,11.6,11.6,0,0,0-5.07,3.9,11.75,11.75,0,0,0-2.07,5.55c0,.51-.07,1-.08,1.54s0,1.14,0,1.68a27.42,27.42,0,0,0,.16,3.2c.24,2,1,3.62,2.92,4s4.27-.47,6.35-1.48a35.52,35.52,0,0,0,6-3.84,3.08,3.08,0,0,0,1.35-2.16,3.76,3.76,0,0,0-.86-2.49,5.09,5.09,0,0,0-2.29-1.68,2.74,2.74,0,0,0-2.4.17l-.48.37-.47.53c-.13.18-.2.35-.32.51s-.1.3-.12.42,0,.23,0,.33a1.09,1.09,0,0,0,.1.36c.07.13.18.28.28.43A3.69,3.69,0,0,0,91,140a8.58,8.58,0,0,0,2.63,1.5,13.18,13.18,0,0,0,3.18.76h0a1.33,1.33,0,0,1,0,2.65Z" transform="translate(-0.44 -83.2)"/>
    </g>
    <g>
      <path class="cls-4" d="M230.53,143.62c-5.31,0-12.68-2.17-8.08-6.07s13,2.17,8.08,6.07S209,156.85,211.48,139c2.48-17.7,32-17.5,28.25,2.88-1.41,7.79-8.47,10-9.13,10.22" transform="translate(-0.44 -83.2)"/>
      <path d="M230.53,145.69a22.37,22.37,0,0,1-8-1.65,7.35,7.35,0,0,1-2.06-1.32,4.25,4.25,0,0,1-1-1.27,3.56,3.56,0,0,1-.35-1.87,4.58,4.58,0,0,1,1.32-2.69,8.18,8.18,0,0,1,.86-.81,7.37,7.37,0,0,1,1-.7,7.5,7.5,0,0,1,4.72-.75,9.79,9.79,0,0,1,4.26,1.73,7.1,7.1,0,0,1,1.76,1.78,5.26,5.26,0,0,1,.94,2.77,5,5,0,0,1-.9,3,6.14,6.14,0,0,1-.91,1l-.48.41-.41.29a39.89,39.89,0,0,1-6.91,3.54,34.74,34.74,0,0,1-3.65,1.47,15.28,15.28,0,0,1-4.14.83,7.33,7.33,0,0,1-4.78-1.39,7.94,7.94,0,0,1-2.73-4.25,15,15,0,0,1-.51-4.32c0-.69.06-1.37.14-2a14.26,14.26,0,0,1,.34-2.06,13.6,13.6,0,0,1,.6-2.07c.24-.68.59-1.33.89-2a15.3,15.3,0,0,1,2.6-3.42,17.87,17.87,0,0,1,7.09-4.21,21.78,21.78,0,0,1,7.92-1,17,17,0,0,1,7.81,2.3,12.3,12.3,0,0,1,5.34,6.59,15.55,15.55,0,0,1,.39,8.26,16.34,16.34,0,0,1-.52,2,16,16,0,0,1-.85,1.94,12.49,12.49,0,0,1-2.52,3.36,13.49,13.49,0,0,1-7.07,3.54h0a.7.7,0,0,1-.79-.57.71.71,0,0,1,.34-.71,15.92,15.92,0,0,0,5.15-4.41,11.09,11.09,0,0,0,1.52-2.78,13,13,0,0,0,.47-1.5c.07-.53.22-1,.27-1.57a16.31,16.31,0,0,0-.36-6.31,4,4,0,0,0-.24-.71l-.27-.71a9.37,9.37,0,0,0-.74-1.31,9,9,0,0,0-2.07-2.26,10.9,10.9,0,0,0-2.8-1.56,13,13,0,0,0-3.23-.69,12.88,12.88,0,0,0-11.48,5.24,14.32,14.32,0,0,0-1.51,2.66,16.64,16.64,0,0,0-.85,2.93c-.09.5-.19,1-.25,1.58s-.12,1.1-.15,1.64a13.41,13.41,0,0,0,.07,3c.33,1.82.89,2.7,2.88,3a13,13,0,0,0,6.36-1.43,32.81,32.81,0,0,0,5.74-4c.91-.69,1-1,1.08-1.28a2.17,2.17,0,0,0-.91-1.59,4.89,4.89,0,0,0-2.45-1.15,3.91,3.91,0,0,0-2.43.37,4.07,4.07,0,0,0-.48.33,5,5,0,0,0-.47.45,1.3,1.3,0,0,0-.35.52s0-.1,0-.09a2.25,2.25,0,0,0,.17.17,4.1,4.1,0,0,0,1.07.6,16.41,16.41,0,0,0,6.44,1h0a2.07,2.07,0,0,1,.13,4.14Z" transform="translate(-0.44 -83.2)"/>
    </g>
  </g>
  <g id="おんぷ右">
    <g>
      <path class="cls-2" d="M275.72,170.46c-8.46,0-11.54-1-13.6-2-2.83-1.41-6.19-4.47-6.19-11a14.4,14.4,0,0,1,7.25-11.63c2.79-1.53,7.18-2.45,11.75-2.45a26.78,26.78,0,0,1,5.33.49,14.85,14.85,0,0,1,4.27,1.46c0-6.16,0-15.23,0-24.28,0-9.33.1-16.82.22-22.27.06-3.25.15-5.82.25-7.61.16-3,.29-4.36,1.44-5.51A5.78,5.78,0,0,1,290.58,84c2.48,0,5.29,1.48,5.62,4.21.11.84.18.89.89,1.42.25.19.54.41.84.67s1.28,1,4.71,2c11.81,3.55,17.8,8.95,17.8,16s-3.26,12.45-9.17,15.46a5.29,5.29,0,0,1-2.43.6,4.91,4.91,0,0,1-4.62-3.18,5.25,5.25,0,0,1,1.5-5.78,4.09,4.09,0,0,0,1.5-3.11c0-.24-.76-1.4-4.44-2.66a66.61,66.61,0,0,1-6.39-2.44l.05,45.05v2.95a19.12,19.12,0,0,1-.34,4.3c-.84,3.35-3.24,6.1-7.13,8.16C285.5,169.53,281,170.46,275.72,170.46Z" transform="translate(-0.44 -83.2)"/>
      <path d="M309.61,120.54c-1.65.83-2.83-1.14-1.45-2.37a7.75,7.75,0,0,0,2.72-5.84q0-3.77-6.94-6.13a46.79,46.79,0,0,1-11.22-5.09l.06,51.17v2.95a16.8,16.8,0,0,1-.23,3.41c-.58,2.32-2.34,4.25-5.29,5.81s-6.8,2.35-11.54,2.35c-5,0-9.29-.27-12-1.61-3.1-1.55-4.17-4.41-4.17-7.76a10.73,10.73,0,0,1,5.35-8.42c3.37-1.85,10-2.51,14.6-1.58,3.95.79,4.72,2.09,8.69,5.52,0,0-.4-63.55.79-64.73s3.46-.36,3.55.39c.36,2.94,1.9,3.48,3,4.41a17.94,17.94,0,0,0,6,2.77q15.21,4.58,15.21,12.55C316.78,111.81,315.83,117.37,309.61,120.54Z" transform="translate(-0.44 -83.2)"/>
    </g>
  </g>
  <g id="おんぷ左">
    <g>
      <path class="cls-2" d="M20.23,170.51c-8.46,0-11.54-1-13.61-2C3.8,167.1.44,164,.44,157.49a14.43,14.43,0,0,1,7.24-11.64c2.8-1.53,7.19-2.44,11.75-2.44a27.68,27.68,0,0,1,5.34.48A15.39,15.39,0,0,1,29,145.35c0-6.15,0-15.22,0-24.27,0-9.34.11-16.83.22-22.27.07-3.26.15-5.82.25-7.62.17-3,.29-4.35,1.44-5.5A5.81,5.81,0,0,1,35.09,84c2.47,0,5.28,1.47,5.62,4.21.1.84.17.89.88,1.42a10.23,10.23,0,0,1,.85.67c.23.2,1.27,1,4.71,2,11.8,3.55,17.79,9,17.79,16.05s-3.26,12.45-9.17,15.46a5.29,5.29,0,0,1-2.43.6,4.9,4.9,0,0,1-4.61-3.19,5.2,5.2,0,0,1,1.5-5.77,4.12,4.12,0,0,0,1.49-3.11c0-.24-.75-1.4-4.44-2.66a67.65,67.65,0,0,1-6.39-2.44l0,45.05v2.95a18.54,18.54,0,0,1-.34,4.3c-.83,3.35-3.23,6.1-7.12,8.16C30,169.58,25.55,170.51,20.23,170.51Z" transform="translate(-0.44 -83.2)"/>
      <path d="M54.11,120.6c-1.64.83-2.82-1.14-1.44-2.37a7.78,7.78,0,0,0,2.71-5.84q0-3.77-6.94-6.13a46.52,46.52,0,0,1-11.21-5.09l.05,51.17v2.95a16.14,16.14,0,0,1-.23,3.41c-.57,2.31-2.34,4.25-5.29,5.81s-6.79,2.34-11.53,2.34c-5,0-9.3-.26-12-1.6-3.1-1.56-4.16-4.41-4.16-7.76a10.73,10.73,0,0,1,5.34-8.43c3.38-1.85,10-2.5,14.61-1.58,3.95.79,4.71,2.1,8.68,5.53,0,0-.39-63.55.79-64.74s3.46-.35,3.56.4c.35,2.94,1.89,3.48,3,4.4s3.07,1.85,6,2.78q15.21,4.58,15.21,12.55C61.28,111.87,60.34,117.43,54.11,120.6Z" transform="translate(-0.44 -83.2)"/>
    </g>
  </g>
</svg>
