<?xml version="1.0" standalone="no"?>
<!DOCTYPE svg PUBLIC "-//W3C//DTD SVG 20010904//EN"
 "http://www.w3.org/TR/2001/REC-SVG-20010904/DTD/svg10.dtd">
<svg version="1.0" xmlns="http://www.w3.org/2000/svg"
 width="380.000000pt" height="380.000000pt" viewBox="0 0 380.000000 380.000000"
 preserveAspectRatio="xMidYMid meet">
<metadata>
Created by potrace 1.11, written by Peter Selinger 2001-2013
</metadata>
<g transform="translate(0.000000,380.000000) scale(0.100000,-0.100000)"
fill="#000000" stroke="none">
<path d="M890 2489 c-136 -23 -264 -122 -327 -254 -31 -66 -37 -89 -41 -170
-4 -78 -2 -99 12 -120 25 -37 60 -48 101 -31 38 16 42 26 48 131 5 85 31 148
82 200 128 127 321 109 396 -37 24 -46 49 -150 49 -203 0 -72 50 -114 110 -94
40 14 50 36 50 106 -1 145 -52 276 -144 369 -90 90 -204 125 -336 103z"/>
<path d="M2745 2447 c-190 -64 -322 -244 -324 -445 -1 -43 3 -57 24 -77 29
-30 73 -32 107 -5 21 16 26 31 31 87 15 155 120 276 254 291 33 3 55 -2 97
-22 95 -47 159 -138 189 -271 18 -78 41 -105 89 -105 40 0 78 40 78 82 0 51
-27 146 -62 218 -41 85 -142 186 -223 225 -71 34 -193 44 -260 22z"/>
<path d="M0 2204 c0 -39 3 -44 28 -50 83 -20 174 -90 211 -162 88 -172 4 -449
-165 -548 -33 -19 -44 -32 -44 -50 0 -66 112 -22 210 82 99 107 146 235 138
379 -7 105 -35 176 -99 248 -53 60 -154 118 -236 136 l-43 9 0 -44z"/>
<path d="M3755 2226 c-173 -55 -298 -180 -341 -341 -19 -71 -18 -230 3 -290
22 -65 85 -127 146 -144 52 -15 128 -10 193 12 39 14 39 14 42 72 3 56 2 57
-20 51 -119 -34 -181 -25 -204 29 -28 69 -9 246 36 335 30 58 92 123 145 151
l45 24 0 57 c0 32 -1 58 -2 57 -2 0 -21 -6 -43 -13z"/>
<path d="M0 1926 c0 -42 6 -64 25 -92 14 -20 25 -43 25 -51 0 -24 -20 -53 -35
-53 -12 0 -15 -15 -15 -66 0 -72 -1 -72 66 -18 72 58 91 130 55 209 -18 41
-68 97 -102 115 -18 10 -19 7 -19 -44z"/>
<path d="M3758 1893 c-67 -73 -63 -150 12 -203 l30 -21 0 125 c0 69 -4 126 -8
126 -5 0 -20 -12 -34 -27z"/>
<path d="M1418 1799 c-29 -28 -30 -34 -25 -88 15 -170 193 -333 422 -387 86
-20 242 -23 315 -5 118 29 220 102 275 195 45 77 70 229 45 275 -16 31 -65 46
-100 31 -37 -15 -50 -37 -50 -83 0 -70 -29 -140 -80 -189 -59 -57 -121 -78
-233 -78 -232 0 -437 135 -437 288 0 31 -43 72 -75 72 -16 0 -39 -12 -57 -31z"/>
</g>
</svg>
